<svg width="20" height="20" fill="none" xmlns="http://www.w3.org/2000/svg"><path fill-rule="evenodd" clip-rule="evenodd" d="M10 0H5.9C2.2.3.2 2.3 0 6A70.2 70.2 0 000 14c.1 3.7 2.1 5.7 5.8 5.8a71.4 71.4 0 008.2 0c3.7-.1 5.7-2.1 5.8-5.8A70.3 70.3 0 0020 6C19.8 2.2 17.8.2 14.1 0L10 0zm0 1.8h4c2.8.2 4 1.5 4.1 4.2a69.4 69.4 0 010 8c0 2.7-1.3 4-4 4.1a69.1 69.1 0 01-8.1 0c-2.8 0-4-1.4-4.1-4a69.2 69.2 0 010-8.1c0-2.7 1.3-4 4-4.1l4.1-.1zM4.9 10A5.1 5.1 0 1115 10 5.1 5.1 0 015 10zm5.1 3.3a3.3 3.3 0 110-6.6 3.3 3.3 0 010 6.6zm4.1-8.6a1.2 1.2 0 112.4 0 1.2 1.2 0 01-2.4 0z"/></svg>