<svg width="20" height="20" fill="none" xmlns="http://www.w3.org/2000/svg"><path d="M10 0a10 10 0 00-3.6 19.3c-.1-.8-.2-2 0-2.9l1.2-5s-.3-.5-.3-1.4c0-1.4.8-2.4 1.8-2.4.8 0 1.2.6 1.2 1.4 0 .8-.5 2.1-.8 3.3-.2 1 .5 1.8 1.5 1.8 1.8 0 3.1-1.9 3.1-4.6 0-2.4-1.7-4-4.1-4a4.3 4.3 0 00-4.6 4.3c0 .9.4 1.8.8 2.3v.3L6 13.5c0 .2-.2.2-.4.1-1.2-.5-2-2.4-2-3.8 0-3.2 2.3-6 6.6-6 3.5 0 6.2 2.4 6.2 5.7 0 3.4-2.2 6.2-5.2 6.2-1 0-2-.5-2.3-1.1l-.6 2.3c-.2.9-.9 2-1.3 2.7A10 10 0 0020 10 10 10 0 0010 0z" fill="#2C7566"/></svg>