<svg width="170" height="33" fill="none" xmlns="http://www.w3.org/2000/svg"><path fill-rule="evenodd" clip-rule="evenodd" d="M121.6 6.3c1.2 0 2.2-.3 2.9-.9.7-.6 1-1.3 1-2.3 0-.9-.3-1.6-1-2.2-.6-.6-1.6-.9-3-.9-1.2 0-2.2.3-2.8.9-.7.6-1 1.3-1 2.2 0 1 .3 1.7 1 2.3.7.6 1.6.9 2.9.9zm-108 18a9.8 9.8 0 01-5.5 1.4C3.3 25.7.6 23.8 0 20l5.1-1.2c.3 1.4 1.3 2.2 3 2.2 1 0 1.6-.3 1.6-1 0-.1 0-.3-.2-.4l-1-.5-2-.7-.6-.2a13 13 0 01-2-.9l-1.1-.7-1-1c-.3-.3-.5-.7-.7-1.2L1 13c0-1.7.7-3.2 2-4.3C4.5 7.6 6.2 7 8.3 7c3.5 0 5.9 1.5 7 4.6l-5 1.4c-.5-1-1.1-1.4-2-1.4-.8 0-1.2.3-1.2.8 0 .2 0 .4.3.5l.9.5 2 .8c3.7 1.3 5.6 3.2 5.7 5.7 0 2-.8 3.3-2.3 4.3zM29 23c-1 1.8-2.7 2.6-5 2.6-4.1 0-6.2-2.6-6.2-7.8V7.4h7v9.8c0 2 .7 3 2.2 3 1.3 0 2-1 2-3V7.4h7v18h-7V23zm17.2 2.2v-9.8c0-2 .7-3 2-3 1.5 0 2.2 1 2.2 3v9.8h7V14.8c0-5.2-2-7.8-6.2-7.8-2.3 0-4 .9-5 2.6V7.4h-7v18h7zm21.1-9.8v9.8h-7v-18h7v2.3c1.1-1.7 2.8-2.6 5-2.6 4.2 0 6.3 2.6 6.3 7.8v10.5h-7v-9.8c0-2-.8-3-2.2-3-1.4 0-2 1-2 3zm22 17.5l11.4-25.6h-7.3l-3.5 9.2-3.1-9.2H79l7.5 16.2-4.2 9.4h7zm24.4-8.8a9.8 9.8 0 01-5.6 1.5c-4.7 0-7.4-1.9-8-5.7l5-1.2c.4 1.4 1.4 2.2 3 2.2 1.1 0 1.7-.3 1.7-1 0-.1 0-.3-.2-.4l-1-.5-2-.7-.6-.2a13.1 13.1 0 01-2-.9l-1.2-.7-.9-1c-.3-.3-.6-.7-.7-1.2-.2-.4-.3-1-.3-1.5 0-1.7.7-3.2 2.1-4.3 1.4-1 3.2-1.6 5.3-1.6 3.5 0 5.8 1.5 7 4.6l-5 1.4c-.5-1-1.2-1.4-2.1-1.4-.8 0-1.1.3-1.1.8 0 .2 0 .4.2.5l1 .5 2 .8c3.6 1.3 5.5 3.2 5.6 5.7 0 2-.7 3.3-2.2 4.3zm11.4-16.8v18h-7v-18h7zm10.6 18.3c2.4 0 4.1-.8 5.2-2.6v2.2h7V.6h-7v9C139.9 8 138 7 135.7 7c-2.4 0-4.4.9-6 2.7a9.6 9.6 0 00-2.4 6.7c0 2.7.8 5 2.4 6.7a7.8 7.8 0 006 2.6zm-.4-6.5a3 3 0 002.4 1.2 3 3 0 002.4-1.2c.6-.7.9-1.7.9-2.8 0-1.2-.3-2.2-1-3a3 3 0 00-2.3-1 3 3 0 00-2.5 1c-.6.8-.9 1.8-.9 3 0 1.1.3 2 1 2.8zm25.3 6.5c3.6 0 6.4-1 8.4-3l-3-4a7.5 7.5 0 01-4.8 1.8c-1.3 0-2.4-.3-3.3-1-.8-.6-1.3-1.2-1.3-1.7h13.2l.2-1.6c0-2.9-1-5.1-2.8-6.7a10.3 10.3 0 00-7.1-2.5c-3 0-5.5 1-7.3 2.8a9.2 9.2 0 00-2.7 6.6c0 2.7 1 5 2.8 6.7 2 1.7 4.5 2.6 7.7 2.6zm-2.9-13.1c-.7.4-1 1-1 2h7c0-.9-.5-1.5-1.1-2-.7-.4-1.5-.7-2.5-.7-.9 0-1.7.2-2.4.7z" fill="#fff"/></svg>